<svg xmlns="http://www.w3.org/2000/svg" viewBox="0 0 338.5 101.55"><title>realme-logo</title><path d="M342.75,461.23h338.5V562.78H342.75Z" transform="translate(-342.75 -461.23)" style="fill:#ffc915"/><path d="M482.47,491.47a22.64,22.64,0,0,1,14.29,5V492.2H504v46.25h-7.27v-4.23a22.45,22.45,0,0,1-14.29,4.95,23.19,23.19,0,0,1-16.86-6.85,25.18,25.18,0,0,1,0-34A23.17,23.17,0,0,1,482.47,491.47Zm-50.31-.17a21,21,0,0,1,15.21,6.13c4.11,4.21,6.3,10.13,6.35,17.12v2.38H416.28A15.53,15.53,0,0,0,432,532.07c6.19,0,10.62-2.64,13.94-8.31l.4-.69,6.3,4.05-.37.63C448,535.1,441,539,432,539c-13.59,0-23.07-9.79-23.07-23.8C408.9,501.35,418.68,491.3,432.15,491.3Zm193.35,0a21,21,0,0,1,15.21,6.13c4.11,4.21,6.3,10.13,6.35,17.12v2.38H609.63a15.53,15.53,0,0,0,15.7,15.14c6.19,0,10.62-2.64,13.94-8.31l.4-.69,6.3,4.05-.37.63C641.34,535.1,634.33,539,625.32,539c-13.59,0-23.07-9.79-23.08-23.8C602.24,501.35,612,491.3,625.5,491.3Zm-219.4.8V499H385v39.43h-7.35V492.1Zm172.8-.63c10.53,0,17.08,7.23,17.08,18.87v28h-7.35v-28c0-7.27-4.17-12-10.62-12-8.29,0-11.25,5.72-11.25,11.07v28.91h-7.35v-28c0-7.38-4-12-10.53-12-5.35,0-11.07,4.16-11.07,10.34v29.6h-7.35V492.09h7.35v4.49a16.39,16.39,0,0,1,12.41-5.11c7.48,0,11.57,3.78,13.77,7.36A17.87,17.87,0,0,1,578.9,491.47Zm-58-13v59.91h-7.35V478.45ZM482.1,498.84c-9,0-15.72,7.11-15.72,16.53s6.76,16.44,15.72,16.45c9.3,0,15.54-6.61,15.54-16.45S491.4,498.84,482.1,498.84ZM432,498.21a15.68,15.68,0,0,0-15.36,12.09h29.62A14.1,14.1,0,0,0,432,498.21Zm193.34,0A15.68,15.68,0,0,0,610,510.3h29.62A14.1,14.1,0,0,0,625.32,498.21Z" transform="translate(-342.75 -461.23)" style="fill:#111"/></svg>